<svg width="40" height="40" viewBox="0 0 40 40" fill="none" xmlns="http://www.w3.org/2000/svg">
<path d="M6.66663 33.3333H18.2383M18.2383 33.3333H18.4283M18.2383 33.3333C15.1606 33.3083 12.2175 32.0681 10.0501 29.8828C7.88264 27.6976 6.66652 24.7445 6.66663 21.6667V14.8717C6.66663 14.0217 7.35496 13.3333 8.20496 13.3333H28.4616C29.3116 13.3333 30 14.0217 30 14.8717V15M18.4283 33.3333H30M18.4283 33.3333C21.506 33.3083 24.4491 32.0681 26.6165 29.8828C28.7839 27.6976 30.0001 24.7445 30 21.6667M30 15H32.5C33.605 15 34.6648 15.439 35.4462 16.2204C36.2276 17.0018 36.6666 18.0616 36.6666 19.1667C36.6666 20.2717 36.2276 21.3315 35.4462 22.1129C34.6648 22.8943 33.605 23.3333 32.5 23.3333H30V21.6667M30 15V21.6667M25 5L23.3333 8.33333M20 5L18.3333 8.33333M15 5L13.3333 8.33333" stroke="#F8B64C" stroke-width="2.5" stroke-linecap="round" stroke-linejoin="round"/>
</svg>
