<svg width="40" height="40" viewBox="0 0 40 40" fill="none" xmlns="http://www.w3.org/2000/svg">
<path d="M15 10L11 4.66671C10.5 4.00004 9.33333 3.33337 8.33333 3.33337H3.33333M30 10L18.3333 23.3334L6.66666 10H30Z" stroke="#F8B64C" stroke-width="2.5" stroke-linecap="round" stroke-linejoin="round"/>
<path d="M25.6667 15.1666C26.8187 16.1517 28.2721 16.7148 29.7871 16.7631C31.3021 16.8113 32.7883 16.3418 34.0007 15.432C35.2131 14.5222 36.0792 13.2264 36.4563 11.7583C36.8334 10.2901 36.6989 8.73732 36.075 7.35587C35.4512 5.97442 34.3751 4.84682 33.0244 4.159C31.6737 3.47117 30.1288 3.26419 28.6447 3.57218C27.1605 3.88017 25.8256 4.68474 24.8601 5.85323C23.8945 7.02172 23.356 8.48436 23.3333 9.99998M18.3333 23.3333V36.6666M11.6667 36.6666H25" stroke="#F8B64C" stroke-width="2.5" stroke-linecap="round" stroke-linejoin="round"/>
</svg>
