<svg width="25" height="24" viewBox="0 0 25 24" fill="none" xmlns="http://www.w3.org/2000/svg">
<path d="M24 6.12766H19.5V3.11489C19.5 1.37872 18.15 0 16.45 0H8.55C6.85 0 5.5 1.37872 5.5 3.11489V6.12766H1C0.45 6.12766 0 6.58723 0 7.14894V18.8426C0 21.7021 2.25 24 5.05 24H19.95C22.75 24 25 21.7021 25 18.8426V7.14894C25 6.58723 24.55 6.12766 24 6.12766ZM7.5 3.11489C7.5 2.50213 7.95 2.04255 8.55 2.04255H16.45C17.05 2.04255 17.5 2.50213 17.5 3.11489V6.12766H7.5V3.11489ZM23 18.8426C23 20.5787 21.65 21.9574 19.95 21.9574H5.05C3.35 21.9574 2 20.5787 2 18.8426V8.17021H5.5V10.2128C5.5 10.7745 5.95 11.234 6.5 11.234C7.05 11.234 7.5 10.7745 7.5 10.2128V8.17021H17.5V10.2128C17.5 10.7745 17.95 11.234 18.5 11.234C19.05 11.234 19.5 10.7745 19.5 10.2128V8.17021H23V18.8426Z" fill="white"/>
</svg>
