<svg width="41" height="40" viewBox="0 0 41 40" fill="none" xmlns="http://www.w3.org/2000/svg">
<path d="M36.1596 29.3934H34.6439V26.3636C34.6397 23.3437 33.6865 20.4018 31.9195 17.9531C30.1524 15.5043 27.6609 13.6731 24.7958 12.7174V11.9703C24.7958 9.45891 22.7603 7.4248 20.2504 7.4248C17.7405 7.4248 15.7049 9.45891 15.7049 11.9703V12.7174C12.8399 13.6734 10.3486 15.5044 8.5813 17.9531C6.81403 20.4017 5.86112 23.3436 5.85686 26.3636V29.3934H4.34123C3.92221 29.3934 3.58414 29.7329 3.58414 30.1519V32.4247C3.58556 34.5156 5.28017 36.2101 7.37105 36.2116H33.1296C35.2205 36.2101 36.915 34.5155 36.9165 32.4247V30.1519C36.9165 29.9502 36.837 29.7585 36.6949 29.6164C36.5529 29.4744 36.3599 29.3934 36.1596 29.3934ZM17.2206 11.9701C17.2206 10.2954 18.5772 8.93891 20.2505 8.93891C21.9237 8.93891 23.2803 10.2955 23.2803 11.9701V12.2969C21.2845 11.8608 19.2163 11.8608 17.2206 12.2969V11.9701ZM7.37119 26.3636C7.37119 21.7629 9.82574 17.5112 13.8116 15.2101C17.7959 12.909 22.705 12.909 26.6894 15.2101C30.6752 17.5113 33.1297 21.7629 33.1297 26.3636V29.3934H7.37119V26.3636ZM35.401 32.4247H35.4024C35.401 33.6789 34.384 34.696 33.1297 34.6974H7.37116C6.1169 34.696 5.09985 33.6789 5.09843 32.4247V30.9091H35.4024L35.401 32.4247Z" fill="#F8B64C" stroke="#F8B64C"/>
<path d="M23.9908 16.6207C23.5902 16.517 23.1812 16.7528 23.0689 17.1506C22.9581 17.5483 23.1868 17.9617 23.5831 18.0795C25.0647 18.4915 26.3914 19.3324 27.3955 20.4986C28.3998 21.6633 29.0347 23.0994 29.2236 24.6266C29.2705 25.0058 29.5915 25.2899 29.9736 25.2899C30.0049 25.2913 30.0375 25.2885 30.0688 25.2842C30.2677 25.2601 30.4495 25.1564 30.5731 24.9987C30.6966 24.8396 30.752 24.6393 30.7265 24.439C30.502 22.6166 29.7421 20.9007 28.5432 19.5085C27.3444 18.1179 25.7609 17.1122 23.9908 16.6207Z" fill="#F8B64C" stroke="#F8B64C"/>
</svg>
