<svg width="39" height="39" viewBox="0 0 39 39" fill="none" xmlns="http://www.w3.org/2000/svg">
<path d="M27.625 5.42733C30.0759 6.84247 32.1148 8.87318 33.5397 11.3184C34.9646 13.7637 35.7262 16.5387 35.7491 19.3688C35.7719 22.1988 35.0553 24.9858 33.67 27.4537C32.2848 29.9217 30.279 31.9851 27.8513 33.4396C25.4235 34.8941 22.658 35.6894 19.8284 35.7467C16.9988 35.804 14.2034 35.1212 11.7188 33.7661C9.23416 32.411 7.14654 30.4304 5.66258 28.0205C4.17863 25.6107 3.34979 22.855 3.25813 20.0263L3.25 19.4998L3.25813 18.9733C3.34913 16.1669 4.16577 13.432 5.62841 11.0352C7.09106 8.63837 9.14981 6.66144 11.6039 5.29713C14.0581 3.93283 16.8239 3.22772 19.6316 3.25054C22.4394 3.27335 25.1934 4.02332 27.625 5.42733ZM25.5239 15.101C25.2441 14.8212 24.8718 14.6531 24.4769 14.6283C24.0819 14.6034 23.6915 14.7235 23.3789 14.9661L23.2261 15.101L17.875 20.4505L15.7739 18.351L15.6211 18.2161C15.3085 17.9737 14.9181 17.8537 14.5233 17.8787C14.1285 17.9036 13.7563 18.0716 13.4766 18.3514C13.1968 18.6311 13.0287 19.0033 13.0038 19.3981C12.9789 19.7929 13.0989 20.1833 13.3413 20.496L13.4761 20.6487L16.7261 23.8987L16.8789 24.0336C17.1639 24.2547 17.5143 24.3747 17.875 24.3747C18.2357 24.3747 18.5861 24.2547 18.8711 24.0336L19.0239 23.8987L25.5239 17.3987L25.6588 17.246C25.9013 16.9333 26.0214 16.5429 25.9966 16.148C25.9717 15.7531 25.8037 15.3808 25.5239 15.101Z" fill="#F8B64C"/>
</svg>
