<svg width="41" height="40" viewBox="0 0 41 40" fill="none" xmlns="http://www.w3.org/2000/svg">
<path d="M1.64001 19.5064C1.64001 22.6707 3.85001 25.4157 7.3993 26.0521C7.19787 26.6378 7.1143 27.2571 7.1143 27.91C7.1143 31.3257 9.6593 34.0542 13.4757 34.0542H32.6786C37.0143 34.0542 39.8607 31.0742 39.8607 27.3071C39.8607 24.1771 37.735 21.4985 34.7214 20.745C34.3857 17.38 31.9257 14.6343 28.7114 13.9307C28.2422 11.0521 25.7643 8.89211 22.8014 8.89211C21.9979 8.89211 21.2943 8.99211 20.6922 9.15996C19.2022 7.28496 17.26 5.94568 14.4814 5.94568C10.5136 5.94568 7.16501 9.00996 6.78001 12.9435C3.73359 13.7135 1.64001 16.3757 1.64001 19.5064ZM4.15216 19.5064C4.15216 17.3135 5.8093 15.505 7.83501 15.2535C8.8393 15.1535 9.24144 14.6514 9.2243 13.6464C9.19073 10.8678 11.5686 8.47354 14.4814 8.47354C16.4736 8.47354 18.0136 9.51139 19.035 11.1521C19.4364 11.805 20.0393 11.9557 20.8593 11.6878C21.4336 11.5055 22.0318 11.4097 22.6343 11.4035C24.2079 11.4035 25.5636 12.4078 26.0486 13.8142C23.94 14.0821 22.0814 15.2035 20.8093 16.9114C20.2351 16.7315 19.6367 16.6412 19.035 16.6435C15.9707 16.6435 13.3422 18.8028 12.79 21.8C11.2973 21.9408 9.90039 22.5978 8.84001 23.6578C5.82573 23.4907 4.15216 21.6493 4.15216 19.5064ZM13.4757 31.5428C11.065 31.5428 9.62573 29.9528 9.62573 27.91C9.62573 25.7671 11.3829 24.26 13.3922 24.2271C14.5136 24.2107 14.9993 23.8757 15.0829 22.8543C15.2672 20.7114 16.8914 19.1714 19.0343 19.1714C19.6536 19.1714 20.005 19.255 20.6579 19.5064C21.5286 19.8578 22.0643 19.7064 22.4322 18.9707C23.2864 17.33 25.0607 16.2585 27.07 16.2585C29.9157 16.2585 32.2429 18.5857 32.2429 21.4814C32.2429 22.6364 32.6107 22.9885 33.6993 23.1057C35.775 23.3564 37.3493 25.1985 37.3493 27.3078C37.3493 29.7014 35.6243 31.5435 32.6779 31.5435L13.4757 31.5428Z" fill="#F8B64C"/>
</svg>
