<svg width="41" height="40" viewBox="0 0 41 40" fill="none" xmlns="http://www.w3.org/2000/svg">
<g clip-path="url(#clip0_318_159)">
<path d="M19.25 10.0578V2.5C19.25 2.16848 19.1183 1.85054 18.8839 1.61612C18.6495 1.3817 18.3315 1.25 18 1.25C17.6685 1.25 17.3506 1.3817 17.1161 1.61612C16.8817 1.85054 16.75 2.16848 16.75 2.5V10.0578C13.2263 10.3795 9.96214 12.0472 7.63663 14.7141C5.31113 17.381 4.10325 20.8418 4.26425 24.3765C4.42526 27.9113 5.94275 31.2479 8.50107 33.6923C11.0594 36.1368 14.4616 37.5009 18 37.5009C21.5384 37.5009 24.9406 36.1368 27.499 33.6923C30.0573 31.2479 31.5748 27.9113 31.7358 24.3765C31.8968 20.8418 30.6889 17.381 28.3634 14.7141C26.0379 12.0472 22.7738 10.3795 19.25 10.0578ZM29.1781 22.5H24.2141C23.9781 18.0688 22.5281 14.9438 21.1766 12.9594C23.2998 13.5882 25.1909 14.8283 26.6138 16.5249C28.0368 18.2216 28.9287 20.2997 29.1781 22.5ZM14.2875 25H21.7125C21.4 30.2375 19.1922 33.2734 18 34.5438C16.8063 33.2703 14.5985 30.2359 14.2875 25ZM14.2875 22.5C14.6 17.2625 16.8078 14.2266 18 12.9562C19.1938 14.2297 21.4016 17.2641 21.7125 22.5H14.2875ZM14.8235 12.9594C13.4688 14.9438 12.0219 18.0688 11.786 22.5H6.82189C7.07136 20.2997 7.96322 18.2216 9.38618 16.5249C10.8091 14.8283 12.7002 13.5882 14.8235 12.9594ZM6.82189 25H11.786C12.0219 29.4312 13.4719 32.5562 14.8235 34.5406C12.7002 33.9118 10.8091 32.6717 9.38618 30.9751C7.96322 29.2784 7.07136 27.2003 6.82189 25ZM21.1766 34.5406C22.5281 32.5562 23.9781 29.4312 24.2141 25H29.1781C28.9287 27.2003 28.0368 29.2784 26.6138 30.9751C25.1909 32.6717 23.2998 33.9118 21.1766 34.5406ZM40.5 13.75C40.5 14.0815 40.3683 14.3995 40.1339 14.6339C39.8995 14.8683 39.5815 15 39.25 15H38V16.25C38 16.5815 37.8683 16.8995 37.6339 17.1339C37.3995 17.3683 37.0815 17.5 36.75 17.5C36.4185 17.5 36.1005 17.3683 35.8661 17.1339C35.6317 16.8995 35.5 16.5815 35.5 16.25V15H34.25C33.9185 15 33.6005 14.8683 33.3661 14.6339C33.1317 14.3995 33 14.0815 33 13.75C33 13.4185 33.1317 13.1005 33.3661 12.8661C33.6005 12.6317 33.9185 12.5 34.25 12.5H35.5V11.25C35.5 10.9185 35.6317 10.6005 35.8661 10.3661C36.1005 10.1317 36.4185 10 36.75 10C37.0815 10 37.3995 10.1317 37.6339 10.3661C37.8683 10.6005 38 10.9185 38 11.25V12.5H39.25C39.5815 12.5 39.8995 12.6317 40.1339 12.8661C40.3683 13.1005 40.5 13.4185 40.5 13.75ZM24.25 6.25C24.25 5.91848 24.3817 5.60054 24.6161 5.36612C24.8505 5.1317 25.1685 5 25.5 5H28V2.5C28 2.16848 28.1317 1.85054 28.3661 1.61612C28.6005 1.3817 28.9185 1.25 29.25 1.25C29.5815 1.25 29.8995 1.3817 30.1339 1.61612C30.3683 1.85054 30.5 2.16848 30.5 2.5V5H33C33.3315 5 33.6495 5.1317 33.8839 5.36612C34.1183 5.60054 34.25 5.91848 34.25 6.25C34.25 6.58152 34.1183 6.89946 33.8839 7.13388C33.6495 7.3683 33.3315 7.5 33 7.5H30.5V10C30.5 10.3315 30.3683 10.6495 30.1339 10.8839C29.8995 11.1183 29.5815 11.25 29.25 11.25C28.9185 11.25 28.6005 11.1183 28.3661 10.8839C28.1317 10.6495 28 10.3315 28 10V7.5H25.5C25.1685 7.5 24.8505 7.3683 24.6161 7.13388C24.3817 6.89946 24.25 6.58152 24.25 6.25Z" fill="#F8B64C"/>
</g>
<defs>
<clipPath id="clip0_318_159">
<rect width="40" height="40" fill="white" transform="translate(0.5)"/>
</clipPath>
</defs>
</svg>
